<mxfile host="app.diagrams.net" modified="2023-02-07T02:44:14.768Z" agent="5.0 (Macintosh; Intel Mac OS X 10_15_7) AppleWebKit/537.36 (KHTML, like Gecko) Chrome/109.0.0.0 Safari/537.36" etag="qYswsOo8H82nb8EXyJOb" version="20.8.17" type="github">
  <diagram name="Page-1" id="HFA-RbmCNqnMKgkzZWiN">
    <mxGraphModel dx="1885" dy="1028" grid="1" gridSize="10" guides="1" tooltips="1" connect="1" arrows="1" fold="1" page="1" pageScale="1" pageWidth="827" pageHeight="1169" math="0" shadow="0">
      <root>
        <mxCell id="0" />
        <mxCell id="1" parent="0" />
        <mxCell id="ei_SQ0cY5ZClaDe11Hly-1" value="&lt;p style=&quot;margin: 0px; font-variant-numeric: normal; font-variant-east-asian: normal; font-stretch: normal; line-height: normal; font-family: &amp;quot;Helvetica Neue&amp;quot;;&quot; class=&quot;p1&quot;&gt;&lt;font style=&quot;font-size: 12px;&quot;&gt;violation of the requirement of privacy and security (REQ)&lt;/font&gt;&lt;/p&gt;" style="rounded=0;whiteSpace=wrap;html=1;align=center;" vertex="1" parent="1">
          <mxGeometry x="160" y="250" width="330" height="40" as="geometry" />
        </mxCell>
        <mxCell id="ei_SQ0cY5ZClaDe11Hly-2" value="Unauthorized access to dashcam footage" style="rounded=0;whiteSpace=wrap;html=1;fontSize=12;" vertex="1" parent="1">
          <mxGeometry x="140" y="400" width="120" height="60" as="geometry" />
        </mxCell>
        <mxCell id="ei_SQ0cY5ZClaDe11Hly-5" value="Company level data leak" style="rounded=0;whiteSpace=wrap;html=1;fontSize=12;" vertex="1" parent="1">
          <mxGeometry x="380" y="400" width="213" height="60" as="geometry" />
        </mxCell>
        <mxCell id="ei_SQ0cY5ZClaDe11Hly-15" style="edgeStyle=orthogonalEdgeStyle;rounded=0;orthogonalLoop=1;jettySize=auto;html=1;exitX=1;exitY=0.5;exitDx=0;exitDy=0;exitPerimeter=0;entryX=0.5;entryY=1;entryDx=0;entryDy=0;fontSize=12;" edge="1" parent="1" source="ei_SQ0cY5ZClaDe11Hly-7" target="ei_SQ0cY5ZClaDe11Hly-2">
          <mxGeometry relative="1" as="geometry" />
        </mxCell>
        <mxCell id="ei_SQ0cY5ZClaDe11Hly-7" value="AND" style="shape=or;whiteSpace=wrap;html=1;fontSize=12;rotation=-90;" vertex="1" parent="1">
          <mxGeometry x="183.25" y="489" width="33.5" height="50" as="geometry" />
        </mxCell>
        <mxCell id="ei_SQ0cY5ZClaDe11Hly-16" style="edgeStyle=orthogonalEdgeStyle;rounded=0;orthogonalLoop=1;jettySize=auto;html=1;exitX=1;exitY=0.5;exitDx=0;exitDy=0;exitPerimeter=0;entryX=0.5;entryY=1;entryDx=0;entryDy=0;fontSize=12;" edge="1" parent="1" source="ei_SQ0cY5ZClaDe11Hly-8" target="ei_SQ0cY5ZClaDe11Hly-1">
          <mxGeometry relative="1" as="geometry" />
        </mxCell>
        <mxCell id="ei_SQ0cY5ZClaDe11Hly-8" value="OR" style="shape=xor;whiteSpace=wrap;html=1;fontSize=12;rotation=-90;" vertex="1" parent="1">
          <mxGeometry x="305.22" y="315.22" width="39.55" height="45.93" as="geometry" />
        </mxCell>
        <mxCell id="ei_SQ0cY5ZClaDe11Hly-12" value="" style="endArrow=none;html=1;rounded=0;fontSize=12;entryX=0.5;entryY=0;entryDx=0;entryDy=0;exitX=0.25;exitY=0.5;exitDx=0;exitDy=0;exitPerimeter=0;" edge="1" parent="1" source="ei_SQ0cY5ZClaDe11Hly-8" target="ei_SQ0cY5ZClaDe11Hly-5">
          <mxGeometry width="50" height="50" relative="1" as="geometry">
            <mxPoint x="450" y="490" as="sourcePoint" />
            <mxPoint x="500" y="440" as="targetPoint" />
            <Array as="points">
              <mxPoint x="325" y="380" />
              <mxPoint x="487" y="380" />
            </Array>
          </mxGeometry>
        </mxCell>
        <mxCell id="ei_SQ0cY5ZClaDe11Hly-13" value="" style="endArrow=none;html=1;rounded=0;fontSize=12;entryX=0.5;entryY=0;entryDx=0;entryDy=0;exitX=0.25;exitY=0.5;exitDx=0;exitDy=0;exitPerimeter=0;" edge="1" parent="1" source="ei_SQ0cY5ZClaDe11Hly-8" target="ei_SQ0cY5ZClaDe11Hly-2">
          <mxGeometry width="50" height="50" relative="1" as="geometry">
            <mxPoint x="330" y="350" as="sourcePoint" />
            <mxPoint x="496.5" y="410" as="targetPoint" />
            <Array as="points">
              <mxPoint x="325" y="390" />
              <mxPoint x="200" y="390" />
            </Array>
          </mxGeometry>
        </mxCell>
        <mxCell id="ei_SQ0cY5ZClaDe11Hly-26" style="edgeStyle=orthogonalEdgeStyle;rounded=0;orthogonalLoop=1;jettySize=auto;html=1;exitX=0.5;exitY=0;exitDx=0;exitDy=0;entryX=0;entryY=0.5;entryDx=0;entryDy=0;entryPerimeter=0;fontSize=12;" edge="1" parent="1" source="ei_SQ0cY5ZClaDe11Hly-20" target="ei_SQ0cY5ZClaDe11Hly-7">
          <mxGeometry relative="1" as="geometry" />
        </mxCell>
        <mxCell id="ei_SQ0cY5ZClaDe11Hly-20" value="Lack of proper encryption during transmission of dashcam footage" style="ellipse;whiteSpace=wrap;html=1;rounded=0;fontSize=12;" vertex="1" parent="1">
          <mxGeometry x="13.25" y="576" width="170" height="75" as="geometry" />
        </mxCell>
        <mxCell id="ei_SQ0cY5ZClaDe11Hly-27" style="edgeStyle=orthogonalEdgeStyle;rounded=0;orthogonalLoop=1;jettySize=auto;html=1;exitX=0.5;exitY=0;exitDx=0;exitDy=0;fontSize=12;" edge="1" parent="1" source="ei_SQ0cY5ZClaDe11Hly-21">
          <mxGeometry relative="1" as="geometry">
            <mxPoint x="200" y="530" as="targetPoint" />
          </mxGeometry>
        </mxCell>
        <mxCell id="ei_SQ0cY5ZClaDe11Hly-21" value="Illegal access to the device" style="ellipse;whiteSpace=wrap;html=1;rounded=0;fontSize=12;" vertex="1" parent="1">
          <mxGeometry x="216.75" y="569" width="120" height="80" as="geometry" />
        </mxCell>
        <mxCell id="ei_SQ0cY5ZClaDe11Hly-25" style="edgeStyle=orthogonalEdgeStyle;rounded=0;orthogonalLoop=1;jettySize=auto;html=1;exitX=0.5;exitY=0;exitDx=0;exitDy=0;entryX=0.5;entryY=1;entryDx=0;entryDy=0;fontSize=12;" edge="1" parent="1" source="ei_SQ0cY5ZClaDe11Hly-24" target="ei_SQ0cY5ZClaDe11Hly-5">
          <mxGeometry relative="1" as="geometry" />
        </mxCell>
        <mxCell id="ei_SQ0cY5ZClaDe11Hly-24" value="Poor data management practices by the dashcam company or its contractors" style="ellipse;whiteSpace=wrap;html=1;rounded=0;fontSize=12;" vertex="1" parent="1">
          <mxGeometry x="405" y="539" width="163" height="100" as="geometry" />
        </mxCell>
      </root>
    </mxGraphModel>
  </diagram>
</mxfile>
